<?xml version="1.0" encoding="utf-8"?>
<!-- Generator: Adobe Illustrator 24.3.0, SVG Export Plug-In . SVG Version: 6.00 Build 0)  -->
<!DOCTYPE svg PUBLIC "-//W3C//DTD SVG 1.1//EN" "http://www.w3.org/Graphics/SVG/1.1/DTD/svg11.dtd" [
	<!ENTITY ns_extend "http://ns.adobe.com/Extensibility/1.0/">
	<!ENTITY ns_ai "http://ns.adobe.com/AdobeIllustrator/10.0/">
	<!ENTITY ns_graphs "http://ns.adobe.com/Graphs/1.0/">
	<!ENTITY ns_vars "http://ns.adobe.com/Variables/1.0/">
	<!ENTITY ns_imrep "http://ns.adobe.com/ImageReplacement/1.0/">
	<!ENTITY ns_sfw "http://ns.adobe.com/SaveForWeb/1.0/">
	<!ENTITY ns_custom "http://ns.adobe.com/GenericCustomNamespace/1.0/">
	<!ENTITY ns_adobe_xpath "http://ns.adobe.com/XPath/1.0/">
]>
<svg version="1.1" id="Layer_1" xmlns:x="&ns_extend;" xmlns:i="&ns_ai;" xmlns:graph="&ns_graphs;"
	 xmlns="http://www.w3.org/2000/svg" xmlns:xlink="http://www.w3.org/1999/xlink" x="0px" y="0px" viewBox="0 0 820.042 194.83"
	 enable-background="new 0 0 820.042 194.83" xml:space="preserve">
<metadata>
	<sfw  xmlns="&ns_sfw;">
		<slices></slices>
		<sliceSourceBounds  bottomLeftOrigin="true" height="174.401" width="790.773" x="171.736" y="-586.609"></sliceSourceBounds>
	</sfw>
</metadata>
<g>
	<path fill="#FEFEFE" d="M81.146,157.432c-0.43,0-0.84,0.02-1.22,0.09c0.39-0.06,0.79-0.08,1.22-0.08c0.24,0.01,0.5,0.01,0.74,0.02
		C81.646,157.443,81.386,157.443,81.146,157.432z"/>
	<path fill="#78B94C" d="M807.176,48.552c-0.53,8.57-4.48,15.58-10.12,21.7c-8.57,9.29-19.66,14.38-31.53,17.9
		c-18.28,5.42-37.07,6.88-56,5.97c-7.72-0.37-12.05,3.86-15.84,9.3c-4.96,7.13-5.48,15.74-7.43,23.86
		c-1.25,5.16-2.17,10.41-3.13,15.64c-0.27,1.47-1.06,1.73-2.33,1.72c-5.6-0.03-11.19-0.06-16.79,0.02
		c-2.08,0.03-2.48-0.63-2.03-2.67c2.99-13.51,5.92-27.03,8.71-40.59c1.41-6.9,3.01-13.79,3.53-20.84c0.17-2.22,0.91-3.03,3.13-2.99
		c5.22,0.12,10.44,0.14,15.66,0.05c1.83-0.03,2.45,0.59,2.22,2.37c-0.34,2.69-0.57,5.4-0.85,8.1c0.26,0.21,0.52,0.42,0.78,0.63
		c2.84-7.15,9.78-10.21,14.58-15.43c8.66-9.44,20.22-13.99,32.04-17.79c19.95-6.43,40.61-8.95,61.43-10.56
		C806.186,44.712,807.356,45.582,807.176,48.552z"/>
	<path fill="#78B94C" d="M580.156,78.703c-11.76-2.36-23.61-3.73-35.55-2.25c-8.01,1-15.27,4.35-21.16,9.93
		c-12.59,11.93-16.29,26.89-13.26,43.48c2.29,12.51,13.83,19.09,26.09,15.31c5.03-1.56,12.69-9.12,12.98-9.59
		c0.48,0.71-1.05,7.59-2.05,10.22c-3.07,8.11-8.38,13.41-17.61,14.27c-7.23,0.67-13.82-0.84-19.96-4.44
		c-2.51-1.47-3.47-0.75-3.92,1.83c-0.63,3.65-1.17,7.34-2.16,10.9c-0.56,2.03-0.16,2.78,1.73,3.59c9.66,4.13,19.69,4.87,29.94,3.31
		c10.54-1.6,19.62-5.91,26.07-14.79c5.36-7.39,7.75-15.99,9.66-24.69c3.92-17.87,7.5-35.8,11.39-53.68
		C582.856,79.762,582.236,79.122,580.156,78.703z M558.986,92.972c-2.21,8.85-3.34,18-7.37,26.34c-1.97,4.09-4.61,7.58-8.74,9.74
		c-5.1,2.68-10.62,0.29-11.97-5.26c-0.41-1.68-0.57-3.41-0.75-4.56c0.71-11.75,3.85-21.58,14.69-27.1c4.17-2.12,8.69-1.5,13.14-1.02
		C559.266,91.242,559.226,92.032,558.986,92.972z"/>
	<path fill="#1D4385" d="M160.176,94.492c-0.79,10.91-3.93,21.54-6.21,32.26c-1.06,4.99-2.16,9.97-3.05,14.99
		c-0.37,2.12-1.25,2.88-3.43,2.81c-4.47-0.16-8.95-0.05-13.42-0.05c-4.49,0-4.91-0.5-3.98-4.75c1.32-6.04,2.72-12.07,3.98-18.12
		c1.46-7.03,2.85-14.07,4.18-21.13c0.55-2.93,0.38-5.91-2.46-7.62c-2.9-1.74-6.02-1.35-8.79,0.52c-6.41,4.36-11.41,9.66-12.92,17.74
		c-1.91,10.24-4.35,20.37-6.37,30.59c-0.43,2.19-1.25,2.86-3.4,2.8c-5.22-0.13-10.44-0.09-15.67-0.02
		c-1.96,0.02-2.77-0.03-2.21-2.61c4.32-19.8,8.41-39.65,12.55-59.49c3.87-18.57,7.73-37.14,11.59-55.72c0.02-0.12,0-0.25,0.02-0.37
		c1.19-5.85,1.19-5.85,7.31-5.85c4.23,0,8.46,0.07,12.69-0.04c1.95-0.05,2.67,0.39,2.18,2.52c-2.67,11.7-5.61,23.35-7.71,35.16
		c-1.42,7.95-3.8,15.69-4.74,23.71c-0.27,2.32-2.26,4.36-1.15,7.08c2.57-2.31,4.89-4.69,7.5-6.7c5.23-4.02,11.16-6.83,17.83-6.33
		C155.466,76.712,161.046,82.453,160.176,94.492z"/>
	<path fill="#1D4385" d="M87.726,56.752c-1.26,5.15-2.13,10.4-3.24,15.99c-7.39-4.43-14.74-6.71-22.74-6.76
		c-2.03-0.01-3.93,0.4-5.78,1.18c-3.33,1.4-6.09,3.54-6.4,7.32c-0.37,4.47,0.98,8.31,5.11,10.99c6.19,4,12.45,8.02,17.9,12.98
		c14.12,12.85,9.06,37.19-9.31,44.28c-15.16,5.85-30.16,4.08-44.83-2.22c-1.44-0.62-2.28-1.42-1.94-3.07
		c0.99-4.68,1.95-9.37,3-14.04c0.38-1.7,1.43-2.3,2.95-1.13c2.74,2.12,5.96,4.08,8.94,4.95c7.14,2.09,14.77,3.82,22.02,0.05
		c5.34-2.78,6.31-10.1,2.22-14.72c-3.19-3.6-7.44-5.74-11.49-8.13c-5.39-3.18-10.41-6.77-13.68-12.31
		c-8.05-13.64-3.41-35.32,17.94-41.09c6.38-1.72,13.03-2.45,19.66-1.54c5.98,0.83,12,1.6,17.72,3.76
		C87.526,53.902,88.236,54.632,87.726,56.752z"/>
	<path fill="#78B94C" d="M657.296,78.582c-9.03-2-18.17-2.72-27.38-2.66c-10.88,0.08-20.92,2.94-28.95,10.57
		c-12.23,11.62-15.76,26.15-13.32,42.43c1.96,12.99,13.97,20.22,26.53,16.24c5.74-1.81,9.55-5.94,13.69-10.85
		c0,3.06,0.13,5.4-0.05,7.73c-0.14,1.83,0.11,2.68,2.29,2.62c5.34-0.15,10.7-0.12,16.04,0.02c2.14,0.05,2.86-0.68,2.76-2.77
		c-0.28-5.63,0.82-11.17,1.86-16.61c2.72-14.21,5.88-28.34,9.07-42.45C660.446,80.172,659.996,79.182,657.296,78.582z
		 M636.586,92.922c-2.21,8.72-3.26,17.75-7.18,26c-1.57,3.28-3.58,6.24-6.45,8.49c-6.88,5.38-13.46,2.81-14.87-5.75
		c-0.18-1.1-0.19-2.22-0.22-2.72c0.43-8.98,2.6-16.71,8.66-22.85c5.16-5.22,11.63-6.13,18.59-5.06
		C636.246,91.203,636.936,91.532,636.586,92.922z"/>
	<path fill="#78B94C" d="M502.306,78.662c-9.25-2.07-18.62-2.83-28.08-2.74c-9.02,0.08-17.33,2.46-24.83,7.59
		c-15,10.24-20.51,31.09-16.64,47.28c2.92,12.2,14.12,18.01,26.2,14.36c5.82-1.75,9.45-6.02,13.62-10.73c0,3.13,0.05,5.6-0.02,8.06
		c-0.05,1.53,0.35,2.19,2.09,2.16c5.46-0.1,10.94-0.08,16.4,0.03c1.94,0.04,2.63-0.6,2.57-2.55c-0.18-5.6,0.83-11.15,1.87-16.58
		c2.77-14.44,6.01-28.79,9.22-43.14C505.246,79.962,504.556,79.172,502.306,78.662z M480.566,96.042
		c-1.69,7.83-3.03,15.77-6.48,23.1c-1.93,4.1-4.65,7.59-8.73,9.81c-5.38,2.91-10.98,0.29-12.2-5.72
		c-2.23-11.04,3.59-27.17,14.12-31.17c2.75-1.05,5.51-1.29,7.69-1.4c0.91,0.04,1.16,0.06,1.4,0.07
		C481.716,90.943,481.666,90.932,480.566,96.042z"/>
	<path fill="#78B94C" d="M424.496,97.322c-2.89,14.69-6.04,29.32-9,43.99c-0.5,2.5-1.56,3.52-4.25,3.39
		c-4.97-0.23-9.95-0.12-14.93-0.04c-2.19,0.04-2.74-0.59-2.24-2.84c2.81-12.68,5.47-25.39,8.15-38.1c0.23-1.08,0.3-2.21,0.37-3.32
		c0.16-2.76,0.44-5.76-2.26-7.42c-3.04-1.87-6.35-1.18-9.22,0.56c-6.55,3.99-10.63,10.03-12.4,17.29
		c-2.42,9.97-4.26,20.08-6.26,30.15c-0.54,2.76-1.78,3.88-4.77,3.72c-4.96-0.28-9.95-0.12-14.92-0.04
		c-1.96,0.03-2.62-0.45-2.14-2.58c3.26-14.48,6.47-28.96,9.56-43.48c1.28-6.05,2.32-12.16,3.25-18.28c0.29-1.92,0.72-2.8,2.88-2.74
		c5.22,0.15,10.45,0.14,15.68,0.01c2.39-0.06,2.67,1.05,2.34,2.98c-0.46,2.64-0.8,5.3-1.36,9.08c4.63-4.9,8.8-8.7,13.98-11.17
		c6.23-2.97,12.8-3.76,19.09-1.16C423.006,80.203,426.236,88.443,424.496,97.322z"/>
	<path fill="#1D4385" d="M310.016,118.762c10.03-1.04,19.88-1.85,29.41-6.37c7.39-3.5,12.28-14.18,10.46-21.78
		c-2.24-9.39-9.43-12.63-17.68-14.25c-9.52-1.87-18.48,0.38-26.95,4.84c-8.28,4.36-13.02,11.85-16.71,19.88
		c-2.87,6.23-3.62,13.13-3.19,20.02c0.79,12.52,7.6,21.04,19.68,23.99c11,2.68,21.55,0.41,31.8-3.84c1.13-0.47,1.34-1.23,1.54-2.26
		c0.9-4.47,1.87-8.92,2.97-14.06c-6.87,3.46-13.42,5.67-20.47,6.1c-5.47,0.34-10.39-0.78-13.81-5.52c-1.27-1.75-1.36-3.99-0.94-5.84
		C306.546,117.852,308.666,118.902,310.016,118.762z M309.166,100.312c1.97-4.52,5.62-7.42,9.35-10.21
		c2.37-1.77,10.03-0.09,11.35,2.17c1.54,2.64-0.11,7.53-3.42,9.72c-4.18,2.78-8.99,3.29-13.84,3.58
		C306.786,105.872,306.796,105.742,309.166,100.312z"/>
	<path fill="#1D4385" d="M239.866,118.712c10.7-0.62,21.22-1.29,31.26-6.32c5.67-2.84,11.05-8.63,11.18-16.94
		c0.14-8.31-4.4-15.19-11.64-17.47c-7.11-2.23-14.33-2.89-21.71-1.3c-22.33,4.81-33.54,26.48-31.2,46.32
		c1.38,11.74,7.84,19.28,19.34,22.06c10.9,2.63,21.42,0.62,31.59-3.72c0.99-0.42,1.57-0.96,1.79-2.1c0.89-4.59,1.89-9.16,2.84-13.68
		c-0.34-0.14-0.46-0.24-0.52-0.21c-0.91,0.38-1.81,0.79-2.71,1.18c-7.26,3.09-14.65,5.46-22.71,4.16c-5.51-0.89-9.29-5.05-9.32-9.97
		C238.046,119.322,238.376,118.802,239.866,118.712z M239.906,103.992c2.16-6.51,5.71-11.81,12.67-13.97
		c4.07-1.27,8.2,0.09,9.45,2.98c1.35,3.11-0.39,7.18-4.11,9.35c-4.12,2.39-8.74,3.12-12.58,3.82c-1.91-0.14-3.03-0.33-4.13-0.29
		C239.656,105.943,239.556,105.082,239.906,103.992z"/>
	<path fill="#1D4385" d="M221.626,78.522c-1.1,4.95-2.09,9.94-3.23,14.88c-0.46,2-1.08,3.33-3.91,2.3
		c-7.08-2.59-14.07,0.63-18.48,8.02c-3.02,5.08-4.36,10.75-5.54,16.45c-1.53,7.33-3.1,14.66-4.51,22.02
		c-0.36,1.91-1.26,2.36-3.03,2.34c-5.35-0.09-10.7-0.08-16.05-0.01c-2.19,0.02-2.76-0.66-2.27-2.9
		c3.84-17.72,7.59-35.47,11.31-53.22c0.55-2.64,0.91-5.34,1.15-8.04c0.17-1.9,0.69-2.87,2.9-2.81c5.22,0.16,10.45,0.16,15.67,0.02
		c2.1-0.06,2.57,0.71,2.32,2.59c-0.38,2.81-0.63,5.63-0.93,8.45c2.01-2.69,4.35-4.67,6.17-7.06c3.68-4.81,11.58-7.04,17.24-5.21
		C221.716,76.752,221.886,77.362,221.626,78.522z"/>
	<path fill="#78B94C" d="M793.286,40.052c-0.41,1.45-1.36,1.81-2.77,1.9c-17.76,1.1-35.21,4.07-52.27,9.08
		c-9.97,2.93-19.51,6.97-28.01,13.12c-1.08,0.79-2.06,1.7-4.31,1.6c3.95-6.94,9.26-11.97,15.37-16.19
		c13.81-9.56,29.37-15.12,45.44-19.4c8.11-2.17,16.36-3.87,24.54-5.81c2.53-0.6,3.75,0.36,3.94,2.92
		C795.556,31.693,794.466,35.872,793.286,40.052z"/>
	<path fill="#1D4385" d="M397.386,166.772c-3.64-2.49-10.58-1.52-13.3,1.96c-0.73,0.93-2.36,2.21-0.85,3.32
		c1.07,0.79,2.73,0.61,3.76-1.12c1.38-2.32,3.78-2.64,6.24-2.23c1.6,0.27,2.72,1.09,2.8,2.93c0.1,2.13-1.35,2.3-2.89,2.51
		c-4.33,0.57-9.03-0.26-12.37,3.71c-1.03-1.36-0.23-2.19-0.14-3.09c0.29-3.08-0.28-6.04-2.92-7.99c-2.36-1.74-4.94-2.02-7.53-0.12
		c-0.52,0.38-1.27,1.08-2.21,0.11c-2.55-2.63-3.54-0.6-4.02,1.65c-1.67,7.73-3.25,15.47-4.79,23.23c-0.23,1.16-1.26,2.93,1.01,3.17
		c1.78,0.19,2.46-1.17,2.77-2.78c0.46-2.48,0.64-5.03,1.73-7.43c5.52,4.55,9.3,3.55,15.15-4.1c1.73,6.76,5.08,8.33,11.65,5.67
		c1.16-0.47,2.06-1.8,3.13,0.36c0.31,0.62,3.35,1.49,3.23-0.83c-0.25-4.71,1.53-9,2.04-13.53
		C400.146,169.782,399.276,168.072,397.386,166.772z M373.636,182.582c-1,1.06-2.33,2.49-4.26,1.73c-2.61-1.04-3.9-2.91-3.55-5.43
		c-0.03-3.16,0.99-5.62,2.49-7.95c1.25-1.94,3.01-2.69,5.18-2.24c2.1,0.43,3.05,2.13,3.21,4.06
		C376.996,176.392,376.186,179.872,373.636,182.582z M388.026,184.322c-2.01,0.42-3.11,0.24-3.66-1.89
		c-0.6-2.34,0.29-4.02,2.43-4.57c2.58-0.66,5.29-0.78,8.05-1.15C393.876,182.042,392.406,183.412,388.026,184.322z"/>
	<path fill="#1D4385" d="M357.986,172.332c-0.94,4.04-1.81,8.12-2.52,12.21c-0.32,1.84-1.08,2.69-2.94,2.42
		c-2.34-0.35-0.94-1.94-0.78-2.86c0.66-3.89,1.51-7.73,2.3-11.59c0.25-1.26,0.41-2.63-0.69-3.45c-1.21-0.91-2.57-0.35-3.87,0.22
		c-2.52,1.12-3.68,3.27-4.3,5.72c-0.84,3.3-1.6,6.63-2.16,9.98c-0.31,1.86-1.27,2.19-2.84,1.94c-1.79-0.3-1.2-1.6-0.99-2.6
		c0.8-3.74,1.69-7.47,2.52-11.21c0.32-1.46,0.74-3-0.85-4.04c-1.53-1-2.9-0.13-4.15,0.63c-2.01,1.21-3.13,3.14-3.68,5.37
		c-0.73,3.01-1.74,6-1.98,9.05c-0.23,2.95-1.97,2.3-3.43,1.83c-1.04-0.35-0.48-1.73-0.32-2.55c0.94-4.86,2.15-9.67,3-14.55
		c0.5-2.89,1.79-3.81,4.51-2.8c-0.02,0.57-0.28,1.32-0.01,1.64c0.29,0.34,0.77-0.19,0.99-0.62c4.99-2.52,6.93-2.24,10.35,1.42
		c1.25-0.83,2.4-1.83,3.74-2.42c2.41-1.05,4.98-0.93,7,0.73C358.536,168.162,358.466,170.252,357.986,172.332z"/>
	<path fill="#1D4385" d="M148.206,171.742c-0.79,4.33-1.81,8.62-2.6,12.95c-0.34,1.87-1.32,2.63-3.08,2.24
		c-2.19-0.49-0.77-2.05-0.6-3c0.63-3.64,1.51-7.23,2.22-10.86c0.27-1.43,0.78-3.09-0.77-4.09c-1.43-0.92-2.88-0.16-4.2,0.55
		c-2.4,1.28-3.4,3.54-3.97,6.01c-0.74,3.13-1.51,6.27-2.01,9.44c-0.3,1.9-1.35,2.19-2.85,1.96c-1.87-0.29-1.07-1.68-0.88-2.62
		c0.75-3.77,1.59-7.52,2.42-11.26c0.37-1.64,0.79-3.53-1.21-4.11c-1.67-0.48-3.32-0.85-4.98,1.38c-2.99,3.98-3.43,8.51-4.38,13.01
		c-0.18,0.85-0.23,1.74-0.52,2.54c-0.51,1.4-1.77,1.19-2.85,1.02c-1.35-0.22-0.87-1.26-0.7-2.06c1.2-5.82,2.38-11.64,3.67-17.44
		c0.39-1.74,3.21-2.5,3.69-1.07c0.75,2.27,0.99,1.69,2.38,0.43c2.66-2.42,6.39-1.52,9.31,1.9c1.81-1.46,3.52-3.06,6.09-3.18
		C146.476,165.292,148.926,167.772,148.206,171.742z"/>
	<path fill="#1D4385" d="M194.076,158.042c-1.87-0.25-2.67,0.46-2.93,2.36c-0.34,2.52-1.04,4.98-1.6,7.57
		c-5.04-3.39-9.11-3.24-12.43,0.52c-3.23,3.67-4.41,8.05-3.56,12.82c0.95,5.3,5.04,7.17,9.77,4.52c1.06-0.59,1.62-1.15,2.74-0.05
		c2.07,2.05,3.32,1.62,3.95-1.29c1.69-7.88,3.33-15.76,4.9-23.66C195.086,159.932,196.466,158.352,194.076,158.042z
		 M188.246,174.382c-0.09,3.35-1.26,6.2-3.68,8.59c-2.93,2.89-4.79,2.63-6.7-1.07c-1.84-3.56,0.16-10.46,3.64-12.57
		c1.49-0.9,3.01-1.03,4.53-0.09C187.976,170.443,188.336,172.312,188.246,174.382z"/>
	<path fill="#1D4385" d="M235.296,167.032c-3.47-2.6-11.07-1.74-13.76,1.67c-0.74,0.94-2.35,2.23-0.85,3.34
		c0.99,0.74,2.63,0.69,3.73-1.08c1.56-2.52,4.23-2.83,6.94-2.07c1.41,0.4,2.28,1.4,2.21,3.02c-0.08,1.62-1.17,2.04-2.5,2.16
		c-2.09,0.2-4.19,0.31-6.28,0.53c-4.63,0.5-6.73,2.59-6.79,6.74c-0.59,2.52,0.85,4.29,2.91,5.32c2.68,1.34,5.47,0.87,8.1-0.54
		c1-0.53,2.03-2.07,2.95,0.36c0.22,0.57,3.28,1.66,3.24-0.72c-0.08-4.69,1.57-8.98,2.16-13.49
		C237.626,170.162,237.076,168.362,235.296,167.032z M230.966,181.142c-1.25,2.03-3.13,3.05-5.32,3.18
		c-2.1-0.03-3.69-0.65-3.94-2.75c-0.25-1.98,0.89-3.3,2.76-3.8c1.29-0.36,2.67-0.5,4.02-0.56c1.24-0.05,2.89-1.2,3.64,0.21
		C232.726,178.562,231.676,179.992,230.966,181.142z"/>
	<path fill="#1D4385" d="M208.696,165.612c-4.17-0.6-7.66,0.66-10.13,4.12c-2.57,3.58-3.85,7.59-2.36,11.9
		c1.5,4.35,4.35,6.01,8.89,5.65c3.95-0.32,6.52-2.62,8.53-6.23c-2.35-1.04-3.67-0.37-5.2,1.15c-3.09,3.08-6.71,2.57-8.29-0.81
		c-1.41-3.03-0.87-3.89,2.53-3.91c3.36-0.03,6.72,0.02,10.07-0.02c0.9-0.02,1.9,0.35,2.4-1.07
		C216.696,171.982,213.386,166.282,208.696,165.612z M207.796,174.372c-2.31,0.24-4.66,0.07-7.43,0.07
		c1.26-3.93,3.33-6.03,7.09-5.88c2.72,0.12,4.05,1.92,4.02,4.36C211.446,175.662,209.076,174.242,207.796,174.372z"/>
	<path fill="#1D4385" d="M292.876,165.532c-6.74,0.51-11.62,8.08-9.99,15.47c0.83,3.74,3.43,5.99,7.27,6.28
		c7.05,0.53,12.26-4.72,12.44-12.55C302.736,168.472,299.136,165.052,292.876,165.532z M298.766,174.592
		c0.07,4.73-2.54,7.86-6.31,10.17c-1.64,1-5.88-2.15-6.41-4.59c-0.73-3.38,1.94-9.11,5.03-10.9c1.76-1.01,3.59-1.12,5.3-0.14
		C298.456,170.312,298.916,172.362,298.766,174.592z"/>
	<path fill="#1D4385" d="M257.436,171.592c-0.93,0.11-2.49,2.07-2.92-0.72c-0.2-1.29-1.41-2.04-2.72-2.23
		c-1.85-0.28-4.31-0.46-4.99,1.26c-0.75,1.91,1.14,3.26,3.05,3.97c1.04,0.39,2.01,0.95,3.03,1.4c2.92,1.28,4.66,3.41,4.08,6.66
		c-0.6,3.37-3.12,4.84-6.33,5.26c-0.74,0.09-1.49,0.01-2.24,0.01c-4.12,0.09-7.3-1.73-8.01-4.6c-0.25-1.03-0.83-2.52,0.61-2.85
		c0.96-0.22,2.62-0.83,3.16,1.35c0.8,3.27,3.53,3.43,6.26,3.07c1.28-0.17,2.43-0.85,2.73-2.2c0.31-1.37-0.45-2.42-1.63-3.04
		c-1.75-0.93-3.6-1.66-5.34-2.6c-4.15-2.25-4.56-6.35-1-9.3c3.64-3.01,11.12-1.78,12.64,2.16
		C258.066,169.832,259.786,171.322,257.436,171.592z"/>
	<path fill="#1D4385" d="M440.686,170.532c-0.4,1.63,0.92,2.42,2.18,3.03c1.22,0.59,2.49,1.1,3.72,1.67c2.79,1.3,4.9,3.21,4.3,6.57
		c-0.64,3.56-3.34,4.99-6.68,5.42c-0.61,0.08-1.24,0.01-1.86,0.01c-4.46,0.09-7.84-1.97-8.39-5.15c-0.18-1.02-0.6-2.36,1.08-2.65
		c1.23-0.21,2.12-0.21,2.8,1.46c1.73,4.29,3.49,4.92,6.92,3.21c1.17-0.58,2.3-1.24,2.21-2.65c-0.07-1.29-0.91-2.26-2.14-2.83
		c-1.79-0.83-3.65-1.56-5.34-2.57c-2.81-1.68-3.55-4.66-2.03-7.36c2.43-4.27,11.32-4.43,13.89-0.21c0.72,1.19,1.15,2.19-0.58,3.3
		c-1.87,1.21-2-0.04-2.54-1.11c-0.82-1.66-2.26-2.13-4-2.16C442.606,168.492,441.106,168.802,440.686,170.532z"/>
	<path fill="#1D4385" d="M106.636,165.492c-6.69-0.07-11.61,5.49-11.64,13.12c-0.02,5.98,2.55,7.92,10.49,7.93
		c5.76,0.54,9.26-5.26,9.51-12.4C115.196,168.802,111.776,165.542,106.636,165.492z M103.706,184.992
		c-1.94-0.04-4.85-3.26-4.91-5.44c-0.15-5.25,3.18-11.54,7.39-11.09c3.53,0.38,5.08,1.76,5.12,5.75
		C111.356,179.262,107.256,185.072,103.706,184.992z"/>
	<path fill="#1D4385" d="M420.316,172.443c-1.34,0.73-1.96,0.1-2.67-0.97c-2.53-3.82-6.25-3.76-8.69,0.16
		c-1.33,2.13-1.86,4.56-2,7.06c-0.1,2.4,0.41,4.67,2.93,5.44c2.47,0.77,4.26-0.71,5.59-2.71c0.34-0.51,0.52-1.14,0.89-1.62
		c1-1.26,2.39-0.77,3.39-0.27c1.11,0.55,0.13,1.61-0.23,2.19c-1.8,2.96-4.06,5.36-7.88,5.59c-3.26,0.19-5.91-0.81-7.54-3.73
		c-2.62-4.74-0.45-16.08,7.47-17.88c3.4-0.78,8.03,1.17,9.36,3.76C421.586,170.732,421.806,171.652,420.316,172.443z"/>
	<path fill="#1D4385" d="M85.026,159.152c-0.06,1.71-0.94,2.3-2.69,1.99c-2.19-0.39-2.98,0.84-3.37,2.9
		c-0.44,2.39,1.24,1.59,2.23,1.67c1.08,0.1,1.1,0.69,1.06,1.51c-0.04,1.04-0.5,1.75-1.57,1.54c-2.96-0.58-3.12,1.58-3.52,3.48
		c-0.84,3.98-1.62,7.98-2.48,11.96c-0.25,1.13-0.16,2.65-1.9,2.74c-1.36,0.08-2.76,0.38-2.16-2.04c1.14-4.65,1.89-9.39,2.92-14.07
		c0.24-1.05,0.79-1.92-0.88-2.03c-0.69-0.04-1.65,0.15-1.47-1.03c0.12-0.81,0.17-2.05,1.27-1.96c2.93,0.26,2.67-1.94,3.02-3.63
		c0.12-0.58,0.28-1.11,0.48-1.58c0.13-0.32,0.28-0.61,0.45-0.88c0.6-0.95,1.43-1.62,2.52-1.97c0.15-0.05,0.31-0.1,0.48-0.14
		c0.17-0.03,0.34-0.07,0.51-0.09c0.38-0.07,0.79-0.09,1.22-0.09c0.24,0.01,0.5,0.01,0.74,0.03c0.25,0.01,0.5,0.03,0.74,0.09
		C83.596,157.812,85.076,157.432,85.026,159.152z"/>
	<path fill="#1D4385" d="M282.416,167.022c-0.13,0.7-0.01,1.76-1.02,1.68c-4.38-0.34-3.15,3.49-4.1,5.56
		c-0.64,1.41-0.53,3.15-0.84,4.72c-0.81,4.18-0.83,4.17,3.14,6.73c-2.35,0.69-4.22,2.1-6.46,0.75c-2.21-1.35-1.35-3.47-1.01-5.32
		c0.59-3.16,1.38-6.28,2.03-9.42c0.24-1.2,1.09-2.45-1.16-3.12c-1.52-0.45-0.7-2.6,0.22-2.63c2.61-0.05,2.67-1.84,2.86-3.44
		c0.33-2.73,2.75-2.75,4.7-4.47c-0.41,2.32-0.57,3.91-0.99,5.43c-0.39,1.39-0.67,2.46,1.4,2.25
		C282.086,165.652,282.606,166.012,282.416,167.022z"/>
	<path fill="#1D4385" d="M433.786,167.402c-0.08,0.87-0.56,1.45-1.43,1.35c-2.54-0.28-2.73,1.48-2.98,3.25
		c-0.36,2.53-1.42,4.89-1.62,7.49c-0.15,2.06-1.21,4,1.77,5.04c0.92,0.32,1.54,1.6-0.59,2.06c-4.33,0.94-5.7,0.26-5.58-3.97
		c0.51-2.55,1.27-5.68,1.72-8.86c0.26-1.81,2.41-4.14-1.18-5.39c-0.71-0.24-0.27-2.5,0.93-2.49c2.52,0.01,2.27-1.78,2.63-3.22
		c0.31-1.24,0.64-2.46,2.03-2.82c0.67-0.18,1.43-0.01,2.15,0.01c-0.04,0.6-0.01,1.21-0.12,1.79c-0.36,1.8-2.19,4.11,1.73,4.23
		C433.986,165.892,433.846,166.792,433.786,167.402z"/>
	<path fill="#1D4385" d="M172.196,159.962c-1.68,8.05-3.31,16.11-5.1,24.13c-0.22,1.01,0.1,2.71-1.72,2.85
		c-1.53,0.12-3.24,0.35-2.68-1.71c1.87-8.89,3.67-17.32,5.41-25.76c0.44-2.12,2.06-1.35,3.27-1.37
		C172.836,158.072,172.366,159.142,172.196,159.962z"/>
	<path fill="#1D4385" d="M326.256,159.862c-2.51,8.29-2.82,17.09-5.78,25.29c-0.43,1.17-0.71,2.03-2.08,2.14
		c-1.53-0.27-2.01-1.27-1.71-2.68c1.77-8.19,3.63-16.36,5.31-24.56c0.43-2.06,1.64-2.11,3.23-2.02
		C326.596,158.112,326.516,159.012,326.256,159.862z"/>
	<path fill="#1D4385" d="M94.386,169.382c-4.31-0.66-5.76,2.36-6.8,5.36c-1.17,3.35-1.7,6.93-2.43,10.42
		c-0.33,1.58-1.3,1.9-2.71,1.8c-1.77-0.13-0.87-1.38-1.06-2.08c1.26-5.91,2.58-11.67,3.68-17.47c0.34-1.83,2.06-2.2,2.53-1.54
		c2.21,3.06,4.26,0.05,6.29-0.01c1.15-0.03,2.38-0.48,2.54,0.78C96.576,167.752,96.246,169.672,94.386,169.382z"/>
	<path fill="#1D4385" d="M476.176,184.282c-0.28,1.17-0.07,3.34-2.3,2.67c-1.43,0.1-2.42,0.02-2.22-1.67
		c0.18-1.58,0.83-2.49,2.53-2.31C475.086,183.062,476.516,182.862,476.176,184.282z"/>
	<path fill="#1D4385" d="M489.436,184.412c-0.12,1.34-0.25,2.76-2.24,2.58c-1.07-0.1-2.39,0.23-2.17-1.56
		c0.17-1.46,0.64-2.65,2.45-2.45C488.546,182.912,489.576,182.972,489.436,184.412z"/>
	<path fill="#1D4385" d="M462.866,183.862c-0.44,1.98-0.7,3.34-2.83,3.19c-1.3-0.1-1.7-0.51-1.73-1.67
		c-0.05-2.05,1.37-2.32,2.9-2.42C462.176,182.902,462.786,183.342,462.866,183.862z"/>
	<path fill="#FEFEFE" d="M335.796,167.072c-0.22,0.43-0.7,0.96-0.99,0.62c-0.27-0.32-0.01-1.07,0.01-1.64
		C335.146,166.392,335.466,166.732,335.796,167.072z"/>
</g>
</svg>
